# xmcd
#
# Track frame offsets: 
#        151
#        16020
#        35849
#        53350
#        71215
#        89386
#        107873
#        122924
#        150217
#        165216
#        180691
#        196016
#
# Disc length: 2849 seconds
#
# Revision: 0
# Processed by: cddbd v1.5.1PL2 Copyright (c) Steve Scherf et al.
# Submitted via: ExactAudioCopy v0.95b4
#
DISCID=8c0b1f0c
DTITLE=บานเย็น  รากแก่น - ลำคอนสวรรค์ใฝ่ฝันอ้าย
DYEAR=2001
DGENRE=Country
TTITLE0=ลำคอนสวรรค์ใฝ่ฝันอ้าย
TTITLE1=สัหันตรอ้อนแฟน
TTITLE2=สายฝนมาน้ำตาหลั่ง
TTITLE3=ประสงค์ช้อนจั่งป่อนใจ
TTITLE4=ทำใจลำบาก
TTITLE5=อดีตรักสาละวัน
TTITLE6=ลำพื้นสะอื้นในอก
TTITLE7=ลำสี่สไตล์
TTITLE8=ตังหวายบรรยายรัก
TTITLE9=สาวอิสานเปิดใจ
TTITLE10=ลำมหาชัยหัวใจดวงนี้
TTITLE11=อยากให้จริงใจ
EXTD=
EXTT0=
EXTT1=
EXTT2=
EXTT3=
EXTT4=
EXTT5=
EXTT6=
EXTT7=
EXTT8=
EXTT9=
EXTT10=
EXTT11=
PLAYORDER=
